<mxfile host="app.diagrams.net" agent="Mozilla/5.0 (Windows NT 10.0; Win64; x64) AppleWebKit/537.36 (KHTML, like Gecko) Chrome/131.0.0.0 Safari/537.36 Edg/131.0.0.0" version="24.8.2">
  <diagram id="C5RBs43oDa-KdzZeNtuy" name="Page-1">
    <mxGraphModel dx="1666" dy="747" grid="1" gridSize="10" guides="1" tooltips="1" connect="1" arrows="1" fold="1" page="1" pageScale="1" pageWidth="2000" pageHeight="2000" math="0" shadow="0">
      <root>
        <mxCell id="WIyWlLk6GJQsqaUBKTNV-0" />
        <mxCell id="WIyWlLk6GJQsqaUBKTNV-1" parent="WIyWlLk6GJQsqaUBKTNV-0" />
        <mxCell id="yhJvTV92FceIm_9CPIHu-31" value="" style="edgeStyle=orthogonalEdgeStyle;rounded=0;orthogonalLoop=1;jettySize=auto;html=1;" edge="1" parent="WIyWlLk6GJQsqaUBKTNV-1" source="yhJvTV92FceIm_9CPIHu-26" target="yhJvTV92FceIm_9CPIHu-29">
          <mxGeometry relative="1" as="geometry" />
        </mxCell>
        <mxCell id="yhJvTV92FceIm_9CPIHu-26" value="Receber o chamado do usuário e registrar o motivo do contato, seja um problema ou uma solicitação." style="strokeWidth=2;html=1;shape=mxgraph.lean_mapping.manufacturing_process;fontSize=12;verticalAlign=middle;html=1;align=center;whiteSpace=wrap;" vertex="1" parent="WIyWlLk6GJQsqaUBKTNV-1">
          <mxGeometry x="630" y="820" width="150" height="120" as="geometry" />
        </mxCell>
        <mxCell id="yhJvTV92FceIm_9CPIHu-27" value="Contato Inicial" style="text;fontSize=12;spacingLeft=2;verticalAlign=top;html=1;align=center;spacingTop=-5;resizeWidth=1;whiteSpace=wrap;" vertex="1" parent="yhJvTV92FceIm_9CPIHu-26">
          <mxGeometry width="150" height="22.285714285714285" as="geometry" />
        </mxCell>
        <mxCell id="yhJvTV92FceIm_9CPIHu-28" value="" style="verticalLabelPosition=bottom;html=1;verticalAlign=top;strokeWidth=2;shape=mxgraph.lean_mapping.timeline2;dx1=0;dy1=1;dx2=30;dy2=0;dx3=160;dy3=1;dx4=230;dy4=0;dx5=310;dy5=1;dy6=0;" vertex="1" parent="WIyWlLk6GJQsqaUBKTNV-1">
          <mxGeometry x="950" y="1260" width="400" height="40" as="geometry" />
        </mxCell>
        <mxCell id="yhJvTV92FceIm_9CPIHu-35" value="" style="edgeStyle=orthogonalEdgeStyle;rounded=0;orthogonalLoop=1;jettySize=auto;html=1;" edge="1" parent="WIyWlLk6GJQsqaUBKTNV-1" source="yhJvTV92FceIm_9CPIHu-29" target="yhJvTV92FceIm_9CPIHu-33">
          <mxGeometry relative="1" as="geometry" />
        </mxCell>
        <mxCell id="yhJvTV92FceIm_9CPIHu-29" value="Documentar o contato inicial com as informações fornecidas pelo usuário, criando um registro no sistema." style="strokeWidth=2;html=1;shape=mxgraph.lean_mapping.manufacturing_process;fontSize=12;verticalAlign=middle;html=1;align=center;whiteSpace=wrap;" vertex="1" parent="WIyWlLk6GJQsqaUBKTNV-1">
          <mxGeometry x="830" y="820" width="150" height="120" as="geometry" />
        </mxCell>
        <mxCell id="yhJvTV92FceIm_9CPIHu-30" value="Registro da Interação" style="text;fontSize=12;spacingLeft=2;verticalAlign=top;html=1;align=center;spacingTop=-5;resizeWidth=1;whiteSpace=wrap;" vertex="1" parent="yhJvTV92FceIm_9CPIHu-29">
          <mxGeometry width="150" height="22.285714285714285" as="geometry" />
        </mxCell>
        <mxCell id="yhJvTV92FceIm_9CPIHu-38" value="" style="edgeStyle=orthogonalEdgeStyle;rounded=0;orthogonalLoop=1;jettySize=auto;html=1;" edge="1" parent="WIyWlLk6GJQsqaUBKTNV-1" source="yhJvTV92FceIm_9CPIHu-33" target="yhJvTV92FceIm_9CPIHu-36">
          <mxGeometry relative="1" as="geometry" />
        </mxCell>
        <mxCell id="yhJvTV92FceIm_9CPIHu-33" value="Definir se o chamado é um incidente (problema) ou uma requisição de serviço (solicitação planejada)." style="strokeWidth=2;html=1;shape=mxgraph.lean_mapping.manufacturing_process;fontSize=12;verticalAlign=middle;html=1;align=center;whiteSpace=wrap;" vertex="1" parent="WIyWlLk6GJQsqaUBKTNV-1">
          <mxGeometry x="1040" y="820" width="130" height="120" as="geometry" />
        </mxCell>
        <mxCell id="yhJvTV92FceIm_9CPIHu-34" value="Classificação" style="text;fontSize=12;spacingLeft=2;verticalAlign=top;html=1;align=center;spacingTop=-5;resizeWidth=1;whiteSpace=wrap;" vertex="1" parent="yhJvTV92FceIm_9CPIHu-33">
          <mxGeometry width="130" height="22.285714285714285" as="geometry" />
        </mxCell>
        <mxCell id="yhJvTV92FceIm_9CPIHu-41" value="" style="edgeStyle=orthogonalEdgeStyle;rounded=0;orthogonalLoop=1;jettySize=auto;html=1;" edge="1" parent="WIyWlLk6GJQsqaUBKTNV-1" source="yhJvTV92FceIm_9CPIHu-36" target="yhJvTV92FceIm_9CPIHu-39">
          <mxGeometry relative="1" as="geometry" />
        </mxCell>
        <mxCell id="yhJvTV92FceIm_9CPIHu-36" value="Organizar o chamado em categorias e subcategorias para facilitar o encaminhamento ao grupo correto." style="strokeWidth=2;html=1;shape=mxgraph.lean_mapping.manufacturing_process;fontSize=12;verticalAlign=middle;html=1;align=center;whiteSpace=wrap;" vertex="1" parent="WIyWlLk6GJQsqaUBKTNV-1">
          <mxGeometry x="1250" y="820" width="130" height="120" as="geometry" />
        </mxCell>
        <mxCell id="yhJvTV92FceIm_9CPIHu-37" value="Categorização" style="text;fontSize=12;spacingLeft=2;verticalAlign=top;html=1;align=center;spacingTop=-5;resizeWidth=1;whiteSpace=wrap;" vertex="1" parent="yhJvTV92FceIm_9CPIHu-36">
          <mxGeometry width="130" height="22.285714285714285" as="geometry" />
        </mxCell>
        <mxCell id="yhJvTV92FceIm_9CPIHu-44" value="" style="edgeStyle=orthogonalEdgeStyle;rounded=0;orthogonalLoop=1;jettySize=auto;html=1;" edge="1" parent="WIyWlLk6GJQsqaUBKTNV-1" source="yhJvTV92FceIm_9CPIHu-39" target="yhJvTV92FceIm_9CPIHu-42">
          <mxGeometry relative="1" as="geometry" />
        </mxCell>
        <mxCell id="yhJvTV92FceIm_9CPIHu-39" value="&lt;p&gt;Enviar o chamado para a equipe ou técnico responsável com base na categorização.&lt;/p&gt;" style="strokeWidth=2;html=1;shape=mxgraph.lean_mapping.manufacturing_process;fontSize=12;verticalAlign=middle;html=1;align=center;whiteSpace=wrap;" vertex="1" parent="WIyWlLk6GJQsqaUBKTNV-1">
          <mxGeometry x="1460" y="820" width="130" height="120" as="geometry" />
        </mxCell>
        <mxCell id="yhJvTV92FceIm_9CPIHu-40" value="Atribuição Inicial&lt;div&gt;&lt;br&gt;&lt;/div&gt;" style="text;fontSize=12;spacingLeft=2;verticalAlign=top;html=1;align=center;spacingTop=-5;resizeWidth=1;whiteSpace=wrap;" vertex="1" parent="yhJvTV92FceIm_9CPIHu-39">
          <mxGeometry width="130" height="22.285714285714285" as="geometry" />
        </mxCell>
        <mxCell id="yhJvTV92FceIm_9CPIHu-47" value="" style="edgeStyle=orthogonalEdgeStyle;rounded=0;orthogonalLoop=1;jettySize=auto;html=1;" edge="1" parent="WIyWlLk6GJQsqaUBKTNV-1" source="yhJvTV92FceIm_9CPIHu-42" target="yhJvTV92FceIm_9CPIHu-45">
          <mxGeometry relative="1" as="geometry" />
        </mxCell>
        <mxCell id="yhJvTV92FceIm_9CPIHu-42" value="Revisar o chamado, investigar a causa do problema e buscar soluções, escalando se necessário." style="strokeWidth=2;html=1;shape=mxgraph.lean_mapping.manufacturing_process;fontSize=12;verticalAlign=middle;html=1;align=center;whiteSpace=wrap;" vertex="1" parent="WIyWlLk6GJQsqaUBKTNV-1">
          <mxGeometry x="1670" y="820" width="130" height="120" as="geometry" />
        </mxCell>
        <mxCell id="yhJvTV92FceIm_9CPIHu-43" value="&lt;div&gt;Analise e Investigação&lt;/div&gt;" style="text;fontSize=12;spacingLeft=2;verticalAlign=top;html=1;align=center;spacingTop=-5;resizeWidth=1;whiteSpace=wrap;" vertex="1" parent="yhJvTV92FceIm_9CPIHu-42">
          <mxGeometry width="130" height="22.285714285714285" as="geometry" />
        </mxCell>
        <mxCell id="yhJvTV92FceIm_9CPIHu-50" value="" style="edgeStyle=orthogonalEdgeStyle;rounded=0;orthogonalLoop=1;jettySize=auto;html=1;" edge="1" parent="WIyWlLk6GJQsqaUBKTNV-1" source="yhJvTV92FceIm_9CPIHu-45" target="yhJvTV92FceIm_9CPIHu-48">
          <mxGeometry relative="1" as="geometry" />
        </mxCell>
        <mxCell id="yhJvTV92FceIm_9CPIHu-45" value="Aplicar a solução, testar para garantir que o problema foi resolvido e comunicar o usuário." style="strokeWidth=2;html=1;shape=mxgraph.lean_mapping.manufacturing_process;fontSize=12;verticalAlign=middle;html=1;align=center;whiteSpace=wrap;" vertex="1" parent="WIyWlLk6GJQsqaUBKTNV-1">
          <mxGeometry x="1880" y="820" width="130" height="120" as="geometry" />
        </mxCell>
        <mxCell id="yhJvTV92FceIm_9CPIHu-46" value="&lt;div&gt;Resolução&lt;/div&gt;" style="text;fontSize=12;spacingLeft=2;verticalAlign=top;html=1;align=center;spacingTop=-5;resizeWidth=1;whiteSpace=wrap;" vertex="1" parent="yhJvTV92FceIm_9CPIHu-45">
          <mxGeometry width="130" height="22.285714285714285" as="geometry" />
        </mxCell>
        <mxCell id="yhJvTV92FceIm_9CPIHu-48" value="Confirmar que o chamado foi resolvido, registrar as informações finais e arquivar o registro." style="strokeWidth=2;html=1;shape=mxgraph.lean_mapping.manufacturing_process;fontSize=12;verticalAlign=middle;html=1;align=center;whiteSpace=wrap;" vertex="1" parent="WIyWlLk6GJQsqaUBKTNV-1">
          <mxGeometry x="2090" y="820" width="130" height="120" as="geometry" />
        </mxCell>
        <mxCell id="yhJvTV92FceIm_9CPIHu-49" value="&lt;div&gt;Fechamento&lt;/div&gt;" style="text;fontSize=12;spacingLeft=2;verticalAlign=top;html=1;align=center;spacingTop=-5;resizeWidth=1;whiteSpace=wrap;" vertex="1" parent="yhJvTV92FceIm_9CPIHu-48">
          <mxGeometry width="130" height="22.285714285714285" as="geometry" />
        </mxCell>
        <mxCell id="yhJvTV92FceIm_9CPIHu-85" value="" style="edgeStyle=orthogonalEdgeStyle;rounded=0;orthogonalLoop=1;jettySize=auto;html=1;" edge="1" parent="WIyWlLk6GJQsqaUBKTNV-1" source="yhJvTV92FceIm_9CPIHu-82" target="yhJvTV92FceIm_9CPIHu-84">
          <mxGeometry relative="1" as="geometry" />
        </mxCell>
        <mxCell id="yhJvTV92FceIm_9CPIHu-87" value="" style="edgeStyle=orthogonalEdgeStyle;rounded=0;orthogonalLoop=1;jettySize=auto;html=1;" edge="1" parent="WIyWlLk6GJQsqaUBKTNV-1" source="yhJvTV92FceIm_9CPIHu-82" target="yhJvTV92FceIm_9CPIHu-86">
          <mxGeometry relative="1" as="geometry" />
        </mxCell>
        <mxCell id="yhJvTV92FceIm_9CPIHu-82" value="Atividades&lt;br&gt;&lt;div&gt;&lt;br&gt;&lt;/div&gt;&lt;table style=&quot;text-align: left;&quot;&gt;&lt;tbody&gt;&lt;tr&gt;&lt;td&gt;&lt;div style=&quot;text-align: left;&quot;&gt;&lt;font style=&quot;font-size: 11px;&quot;&gt;&lt;span style=&quot;background-color: initial;&quot;&gt;- Criar a interação no sistema.&lt;br&gt;&lt;/span&gt;&lt;span style=&quot;background-color: initial;&quot;&gt;- Documentar informações.&lt;br&gt;&lt;/span&gt;&lt;/font&gt;&lt;span style=&quot;font-size: 11px; background-color: initial;&quot;&gt;- Salvar o registro.&lt;/span&gt;&lt;/div&gt;&lt;/td&gt;&lt;/tr&gt;&lt;/tbody&gt;&lt;/table&gt;&lt;table style=&quot;text-align: left;&quot;&gt;&lt;tbody&gt;&lt;tr&gt;&lt;td&gt;&lt;/td&gt;&lt;/tr&gt;&lt;/tbody&gt;&lt;/table&gt;" style="html=1;outlineConnect=0;whiteSpace=wrap;fillColor=#ffff99;shape=mxgraph.archimate3.businessObject;overflow=fill;align=center;" vertex="1" parent="WIyWlLk6GJQsqaUBKTNV-1">
          <mxGeometry x="830" y="940" width="150" height="170" as="geometry" />
        </mxCell>
        <mxCell id="yhJvTV92FceIm_9CPIHu-84" value="Atividades&lt;br&gt;&lt;div&gt;&lt;br&gt;&lt;/div&gt;&lt;table style=&quot;text-align: left;&quot;&gt;&lt;tbody&gt;&lt;tr&gt;&lt;td&gt;&lt;div style=&quot;text-align: left;&quot;&gt;&lt;font style=&quot;&quot;&gt;&lt;span style=&quot;background-color: initial;&quot;&gt;&lt;span style=&quot;font-size: 11px;&quot;&gt;- Receber o chamado.&lt;/span&gt;&lt;/span&gt;&lt;/font&gt;&lt;/div&gt;&lt;div style=&quot;text-align: left;&quot;&gt;&lt;font style=&quot;&quot;&gt;&lt;span style=&quot;background-color: initial;&quot;&gt;&lt;span style=&quot;font-size: 11px;&quot;&gt;- Identificar o usuário.&lt;br&gt;- Registrar o motivo do contato.&lt;/span&gt;&lt;/span&gt;&lt;/font&gt;&lt;/div&gt;&lt;/td&gt;&lt;/tr&gt;&lt;/tbody&gt;&lt;/table&gt;" style="html=1;outlineConnect=0;whiteSpace=wrap;fillColor=#ffff99;shape=mxgraph.archimate3.businessObject;overflow=fill;align=center;" vertex="1" parent="WIyWlLk6GJQsqaUBKTNV-1">
          <mxGeometry x="630" y="940" width="150" height="170" as="geometry" />
        </mxCell>
        <mxCell id="yhJvTV92FceIm_9CPIHu-89" value="" style="edgeStyle=orthogonalEdgeStyle;rounded=0;orthogonalLoop=1;jettySize=auto;html=1;" edge="1" parent="WIyWlLk6GJQsqaUBKTNV-1" source="yhJvTV92FceIm_9CPIHu-86" target="yhJvTV92FceIm_9CPIHu-88">
          <mxGeometry relative="1" as="geometry" />
        </mxCell>
        <mxCell id="yhJvTV92FceIm_9CPIHu-86" value="Atividades&lt;br&gt;&lt;div&gt;&lt;br&gt;&lt;/div&gt;&lt;table style=&quot;text-align: left;&quot;&gt;&lt;tbody&gt;&lt;tr&gt;&lt;td&gt;&lt;div style=&quot;text-align: left;&quot;&gt;&lt;div&gt;- Determinar se é incidente ou requisição de serviço.&lt;br&gt;- Definir o fluxo principal.&lt;/div&gt;&lt;div&gt;&lt;br&gt;&lt;/div&gt;&lt;/div&gt;&lt;/td&gt;&lt;/tr&gt;&lt;/tbody&gt;&lt;/table&gt;&lt;table style=&quot;text-align: left;&quot;&gt;&lt;tbody&gt;&lt;tr&gt;&lt;td&gt;&lt;/td&gt;&lt;/tr&gt;&lt;/tbody&gt;&lt;/table&gt;" style="html=1;outlineConnect=0;whiteSpace=wrap;fillColor=#ffff99;shape=mxgraph.archimate3.businessObject;overflow=fill;align=center;" vertex="1" parent="WIyWlLk6GJQsqaUBKTNV-1">
          <mxGeometry x="1040" y="940" width="150" height="170" as="geometry" />
        </mxCell>
        <mxCell id="yhJvTV92FceIm_9CPIHu-91" value="" style="edgeStyle=orthogonalEdgeStyle;rounded=0;orthogonalLoop=1;jettySize=auto;html=1;" edge="1" parent="WIyWlLk6GJQsqaUBKTNV-1" source="yhJvTV92FceIm_9CPIHu-88" target="yhJvTV92FceIm_9CPIHu-90">
          <mxGeometry relative="1" as="geometry" />
        </mxCell>
        <mxCell id="yhJvTV92FceIm_9CPIHu-88" value="Atividades&lt;br&gt;&lt;div&gt;&lt;br&gt;&lt;/div&gt;&lt;table style=&quot;text-align: left;&quot;&gt;&lt;tbody&gt;&lt;tr&gt;&lt;td&gt;&lt;div style=&quot;text-align: left;&quot;&gt;&lt;div&gt;- Atribuir categoria, subcategoria e item de configuração.&lt;/div&gt;&lt;div&gt;&lt;br&gt;&lt;/div&gt;&lt;/div&gt;&lt;/td&gt;&lt;/tr&gt;&lt;/tbody&gt;&lt;/table&gt;&lt;table style=&quot;text-align: left;&quot;&gt;&lt;tbody&gt;&lt;tr&gt;&lt;td&gt;&lt;/td&gt;&lt;/tr&gt;&lt;/tbody&gt;&lt;/table&gt;" style="html=1;outlineConnect=0;whiteSpace=wrap;fillColor=#ffff99;shape=mxgraph.archimate3.businessObject;overflow=fill;align=center;" vertex="1" parent="WIyWlLk6GJQsqaUBKTNV-1">
          <mxGeometry x="1270" y="940" width="150" height="170" as="geometry" />
        </mxCell>
        <mxCell id="yhJvTV92FceIm_9CPIHu-90" value="Atividades&lt;br&gt;&lt;div&gt;&lt;br&gt;&lt;/div&gt;&lt;table style=&quot;text-align: left;&quot;&gt;&lt;tbody&gt;&lt;tr&gt;&lt;td&gt;&lt;div style=&quot;text-align: left;&quot;&gt;&lt;div&gt;&lt;div&gt;- Identificar grupo ou técnico responsável.&lt;br&gt;- Notificar.&lt;br&gt;- Registrar o status inicial.&lt;/div&gt;&lt;/div&gt;&lt;div&gt;&lt;br&gt;&lt;/div&gt;&lt;/div&gt;&lt;/td&gt;&lt;/tr&gt;&lt;/tbody&gt;&lt;/table&gt;&lt;table style=&quot;text-align: left;&quot;&gt;&lt;tbody&gt;&lt;tr&gt;&lt;td&gt;&lt;/td&gt;&lt;/tr&gt;&lt;/tbody&gt;&lt;/table&gt;" style="html=1;outlineConnect=0;whiteSpace=wrap;fillColor=#ffff99;shape=mxgraph.archimate3.businessObject;overflow=fill;align=center;" vertex="1" parent="WIyWlLk6GJQsqaUBKTNV-1">
          <mxGeometry x="1500" y="940" width="150" height="170" as="geometry" />
        </mxCell>
      </root>
    </mxGraphModel>
  </diagram>
</mxfile>
